<?xml version="1.0" encoding="utf-8"?>
<!-- Generator: Adobe Illustrator 16.0.0, SVG Export Plug-In . SVG Version: 6.00 Build 0)  -->
<!DOCTYPE svg PUBLIC "-//W3C//DTD SVG 1.1//EN" "http://www.w3.org/Graphics/SVG/1.1/DTD/svg11.dtd">
<svg version="1.1" id="Layer_1" xmlns="http://www.w3.org/2000/svg" xmlns:xlink="http://www.w3.org/1999/xlink" x="0px" y="0px"
	 width="1086.129px" height="782.67px" viewBox="0 0 1086.129 782.67" enable-background="new 0 0 1086.129 782.67"
	 xml:space="preserve">
<title>doctor</title>
<path opacity="0.5" fill="#254F64" enable-background="new    " d="M631.059,138.03c-69.629-2.42-136-24.9-199.279-49.49
	c-63.28-24.59-126-51.84-194-64.87c-43.72-8.39-93.72-9.57-128.94,13.87c-33.9,22.55-44.85,61.48-50.74,97.6
	c-4.43,27.18-7,55.78,5.11,81.23c8.43,17.66,23.39,32.51,33.74,49.43c36,58.87,10.55,131.47-28.47,189
	c-18.3,27-39.53,52.69-53.65,81.4s-20.66,61.6-8.3,90.88c12.25,29,41.43,50.82,73.05,66.15c64.22,31.109,139.89,40.01,213.68,45.109
	c163.34,11.17,327.561,6.33,491.331,1.49c60.609-1.8,121.49-3.61,181.109-13c33.111-5.21,67.301-13.47,91.34-33.41
	c30.51-25.32,38.08-68.18,17.631-99.93c-34.301-53.24-129.131-66.47-153.109-123.61c-13.191-31.45,0.359-66.49,19.539-95.66
	c41.131-62.57,110.09-117.47,113.721-189c2.5-49.13-30.65-98.32-81.91-121.57c-53.721-24.39-128.221-21.31-167.852,19
	C764.25,124.18,692.53,140.16,631.059,138.03z"/>
<g>
	
		<rect x="851.091" y="269.694" transform="matrix(-0.9188 -0.3946 0.3946 -0.9188 1490.1829 1035.3623)" fill="#3F3D56" width="0.927" height="189.512"/>
	<path fill="#3F3D56" d="M855.81,354.253c0.023-0.168,2.553-16.832,17.734-26.926l0.512,0.773
		c-14.838,9.864-17.305,26.119-17.328,26.283L855.81,354.253z"/>
	<path fill="#CCCCFF" d="M873.392,328.227c0,0,5.707-19.752,32.981-13.489c5.683,1.304,10.901,2.802,15.602,4.358
		c5.549,1.837,4.32,10.016-1.523,10.181c-8.46,0.243-16.911,1.55-22.601,5.064C882.157,344.024,873.392,328.227,873.392,328.227z"/>
	<path fill="#3F3D56" d="M832.937,408.481l-0.701-0.605c0.107-0.125,10.73-12.689,8.407-30.337l0.919-0.122
		C843.94,395.491,833.048,408.353,832.937,408.481z"/>
	<path fill="#254F64" d="M840.985,378.123c0,0,11.13-17.291-11.522-33.719c-4.72-3.424-9.28-6.368-13.542-8.889
		c-5.032-2.975-10.387,3.331-6.67,7.841c5.381,6.534,9.952,13.761,11.047,20.357C823.32,381.908,840.985,378.123,840.985,378.123
		L840.985,378.123z"/>
	<path fill="#CCCCFF" d="M932.787,268.389c5.627,0.959,11.376,0.786,12.257-1.568c1.049-2.797-5.101-7.786-10.993-10.798
		c6.153-1.489,12.556-4.501,12.289-7.301c-0.246-2.574-6.061-4.262-11.909-4.751c4.913-2.907,9.188-6.752,8.341-9.12
		c-1.057-2.946-9.713-2.622-16.298-0.905c3.7-5.654,6.715-13.545,4.304-15.479c-2.017-1.616-7.279,1.376-11.707,5.232
		c1.34-5.549,1.56-11.294-0.729-12.335c-3.262-1.482-10.374,7.148-13.285,13.553c-0.165,0.361-0.311,0.707-0.441,1.04
		c-0.155-0.53-0.35-1.097-0.589-1.705c-2.565-6.551-9.21-15.547-12.544-14.241c-2.34,0.917-2.43,6.667-1.386,12.28
		c-4.214-4.085-9.312-7.356-11.411-5.847c-2.822,2.026,0.801,11.934,4.766,17.742c-0.312-0.19-0.643-0.38-0.998-0.572
		c-6.193-3.341-17.075-5.913-18.776-2.761c-1.194,2.211,2.457,6.656,6.878,10.265c-5.856-0.394-11.859,0.404-12.487,2.913
		c-0.764,3.044,6.645,7.598,13.079,9.828c-6.624,2.33-15.229,7.985-14.198,11.257c0.755,2.399,6.486,2.875,12.156,2.218
		c-4.362,3.928-7.972,8.789-6.61,10.986c1.8,2.907,11.627,0.109,17.721-3.371c-3.26,6.164-5.702,15.558-2.85,17.271
		c2.156,1.293,6.763-2.152,10.568-6.404c-0.659,5.834-0.137,11.865,2.342,12.607c3.221,0.964,8.598-7.359,10.915-13.958
		c1.598,6.72,5.676,14.982,8.868,14.458c2.552-0.42,3.84-6.336,3.932-12.207c3.232,4.705,7.361,8.709,9.664,7.702
		c3.145-1.375,1.745-11.576-0.855-18.1c5.913,3.383,14.214,5.967,16.006,3.392C940.279,277.59,936.935,272.542,932.787,268.389z
		 M897.583,274.017c-1.371-0.41-2.666-0.695-3.857-0.461c-0.522-1.381-1.786-2.303-3.254-3.185c-1.646-0.987-3.215-1.723-4.87-1.267
		c0.114-1.423-0.571-2.785-1.449-4.199c-0.754-1.219-1.535-2.29-2.58-2.904c0.524-1.381,0.19-2.909-0.324-4.542
		c-0.329-1.042-0.693-2.005-1.229-2.783c1.653-0.812,2.274-2.507,2.761-4.454c0.351-1.388,0.574-2.696,0.287-3.875
		c1.354-0.585,2.219-1.889,3.033-3.396c0.888-1.646,1.537-3.209,1.08-4.802c2.387,1.475,4.328,0.452,6.363-1.009
		c1.164-0.835,2.182-1.688,2.722-2.773c1.414,0.428,2.914-0.007,4.509-0.632c1.364-0.533,2.583-1.122,3.374-2.075
		c0.658,1.376,2.048,2.172,3.649,2.899c1.559,0.708,3.034,1.226,4.469,0.873c0.482,1.112,1.453,2.016,2.57,2.912
		c1.066,0.855,2.111,1.579,3.24,1.842c-0.016,1.035,0.3,2.124,0.709,3.263c0.577,1.613,1.235,3.03,2.487,3.813
		c-0.461,1.122-0.434,2.446-0.299,3.873c0.159,1.678,0.44,3.193,1.422,4.258c-0.495,0.708-0.866,1.567-1.211,2.488
		c-0.602,1.606-1.017,3.113-0.566,4.519c-1.077,0.558-1.914,1.587-2.73,2.761c-1.147,1.649-2.015,3.232-1.539,5.012
		c-0.938,0.107-1.905,0.466-2.905,0.904c-1.57,0.687-2.94,1.44-3.634,2.743c-1.15-0.385-2.474-0.269-3.886-0.035
		c-1.931,0.316-3.628,0.782-4.59,2.269C900.471,275.008,899.109,274.474,897.583,274.017z"/>
	<circle fill="#F1F9F9" cx="902.315" cy="254.456" r="23.162"/>
</g>
<g>
	
		<rect x="806.335" y="205.77" transform="matrix(-0.9189 -0.3945 0.3945 -0.9189 1439.708 844.4789)" fill="#3F3D56" width="0.67" height="136.925"/>
	<path fill="#3F3D56" d="M809.744,266.865c0.018-0.122,1.845-12.161,12.813-19.454l0.37,0.559
		c-10.721,7.127-12.503,18.872-12.521,18.99L809.744,266.865z"/>
	<path fill="#CCCCFF" d="M822.447,248.061c0,0,4.124-14.271,23.83-9.746c4.105,0.942,7.876,2.025,11.272,3.149
		c4.009,1.328,3.121,7.237-1.101,7.356c-6.112,0.176-12.219,1.12-16.329,3.659C828.78,259.474,822.447,248.061,822.447,248.061z"/>
	<path fill="#3F3D56" d="M793.218,306.045l-0.507-0.437c0.077-0.09,7.753-9.169,6.074-21.919l0.664-0.088
		C801.167,296.66,793.298,305.953,793.218,306.045z"/>
	<path fill="#254F64" d="M799.033,284.111c0,0,8.041-12.493-8.325-24.362c-3.41-2.474-6.705-4.601-9.784-6.423
		c-3.636-2.149-7.505,2.407-4.819,5.666c3.888,4.721,7.19,9.943,7.981,14.708C786.269,286.846,799.033,284.111,799.033,284.111
		L799.033,284.111z"/>
	<path fill="#CCCCFF" d="M865.361,204.827c4.065,0.693,8.219,0.568,8.855-1.133c0.758-2.021-3.686-5.625-7.942-7.802
		c4.445-1.076,9.071-3.252,8.879-5.275c-0.178-1.859-4.379-3.08-8.604-3.433c3.55-2.1,6.639-4.879,6.026-6.589
		c-0.764-2.129-7.018-1.895-11.775-0.654c2.673-4.085,4.852-9.787,3.109-11.184c-1.457-1.167-5.26,0.995-8.459,3.781
		c0.969-4.009,1.127-8.16-0.526-8.912c-2.356-1.071-7.495,5.165-9.599,9.792c-0.119,0.261-0.224,0.51-0.318,0.751
		c-0.112-0.383-0.253-0.792-0.426-1.232c-1.854-4.733-6.654-11.233-9.063-10.29c-1.69,0.663-1.755,4.817-1.001,8.873
		c-3.045-2.952-6.728-5.315-8.244-4.224c-2.04,1.464,0.578,8.622,3.442,12.819c-0.225-0.137-0.464-0.275-0.721-0.413
		c-4.475-2.414-12.337-4.272-13.566-1.995c-0.862,1.598,1.775,4.809,4.97,7.417c-4.231-0.285-8.568,0.292-9.022,2.104
		c-0.552,2.199,4.801,5.489,9.45,7.101c-4.786,1.683-11.004,5.769-10.259,8.133c0.546,1.733,4.687,2.078,8.783,1.603
		c-3.152,2.838-5.76,6.35-4.776,7.938c1.301,2.1,8.4,0.079,12.804-2.436c-2.355,4.454-4.12,11.24-2.059,12.479
		c1.558,0.935,4.886-1.555,7.636-4.627c-0.477,4.215-0.099,8.573,1.691,9.109c2.327,0.697,6.212-5.317,7.887-10.084
		c1.154,4.855,4.101,10.825,6.407,10.446c1.844-0.304,2.774-4.578,2.841-8.819c2.335,3.399,5.318,6.292,6.982,5.564
		c2.271-0.993,1.261-8.364-0.618-13.077c4.272,2.444,10.27,4.311,11.564,2.45C870.774,211.475,868.358,207.828,865.361,204.827z
		 M839.926,208.893c-0.991-0.296-1.927-0.502-2.787-0.333c-0.378-0.998-1.291-1.664-2.352-2.301
		c-1.189-0.713-2.322-1.245-3.519-0.915c0.083-1.028-0.413-2.012-1.047-3.034c-0.545-0.88-1.109-1.654-1.864-2.098
		c0.379-0.998,0.138-2.102-0.234-3.282c-0.237-0.753-0.501-1.449-0.888-2.011c1.194-0.586,1.644-1.811,1.995-3.218
		c0.253-1.003,0.415-1.948,0.207-2.8c0.979-0.423,1.604-1.365,2.191-2.454c0.642-1.189,1.111-2.319,0.78-3.47
		c1.725,1.066,3.128,0.327,4.598-0.729c0.842-0.604,1.576-1.22,1.967-2.004c1.021,0.309,2.105-0.005,3.258-0.457
		c0.985-0.385,1.866-0.811,2.438-1.5c0.476,0.995,1.479,1.569,2.637,2.095c1.126,0.512,2.192,0.885,3.229,0.631
		c0.349,0.803,1.05,1.456,1.857,2.104c0.771,0.618,1.525,1.141,2.341,1.331c-0.011,0.748,0.217,1.535,0.513,2.358
		c0.417,1.165,0.893,2.189,1.797,2.755c-0.333,0.811-0.313,1.767-0.216,2.798c0.115,1.212,0.318,2.307,1.027,3.076
		c-0.357,0.512-0.626,1.132-0.875,1.798c-0.435,1.16-0.734,2.249-0.409,3.265c-0.778,0.403-1.383,1.147-1.973,1.995
		c-0.829,1.191-1.456,2.335-1.112,3.621c-0.678,0.077-1.376,0.337-2.099,0.653c-1.135,0.496-2.125,1.041-2.626,1.982
		c-0.831-0.278-1.787-0.194-2.808-0.025c-1.395,0.229-2.621,0.565-3.316,1.64C842.012,209.609,841.028,209.223,839.926,208.893z"/>
	<circle fill="#F1F9F9" cx="843.345" cy="194.76" r="16.735"/>
</g>
<g>
	
		<rect x="219.015" y="553.712" transform="matrix(-0.695 0.719 -0.719 -0.695 819.1581 896.8484)" fill="#3F3D56" width="0.67" height="136.926"/>
	<path fill="#3F3D56" d="M213.558,616.681c-0.106-0.06-10.708-6.051-13.622-18.896l0.653-0.147
		c2.847,12.556,13.188,18.399,13.292,18.458L213.558,616.681z"/>
	<path fill="#CCCCFF" d="M200.503,598.118c0,0-11.87-8.932-0.63-25.738c2.341-3.501,4.695-6.64,6.953-9.414
		c2.667-3.274,7.874-0.343,6.484,3.646c-2.011,5.774-3.301,11.817-2.392,16.563C213.424,596.261,200.503,598.118,200.503,598.118z"
		/>
	<path fill="#3F3D56" d="M244.296,646.064l-0.589,0.318c-0.057-0.104-5.81-10.508-18.324-13.476l0.154-0.651
		C238.352,635.296,244.238,645.957,244.296,646.064z"/>
	<path fill="#CCCCFF" d="M225.864,632.826c0,0-8.813-11.959-25.73-0.887c-3.525,2.307-6.685,4.629-9.483,6.858
		c-3.301,2.634-0.421,7.87,3.58,6.521c5.795-1.954,11.85-3.183,16.586-2.227C223.879,645.728,225.864,632.826,225.864,632.826
		L225.864,632.826z"/>
	<path fill="#CCCCFF" d="M175.367,542.631c2.094-3.553,3.455-7.479,2.092-8.68c-1.62-1.427-6.569,1.443-10.118,4.647
		c0.577-4.537,0.188-9.635-1.771-10.175c-1.801-0.496-4.436,2.996-6.271,6.82c-0.698-4.065-2.197-7.94-4.013-7.977
		c-2.263-0.044-4.268,5.884-4.802,10.772c-2.866-3.952-7.419-8.017-9.345-6.885c-1.61,0.946-0.941,5.27,0.524,9.25
		c-3.402-2.332-7.226-3.956-8.517-2.679c-1.839,1.821,2.16,8.842,5.736,12.454c0.202,0.204,0.398,0.391,0.589,0.565
		c-0.397-0.031-0.83-0.046-1.303-0.041c-5.083,0.049-12.865,2.223-12.84,4.811c0.017,1.815,3.877,3.354,7.936,4.092
		c-3.843,1.796-7.361,4.396-6.882,6.202c0.643,2.427,8.264,2.527,13.206,1.343c-0.208,0.161-0.422,0.336-0.643,0.527
		c-3.848,3.322-8.382,10.01-6.69,11.969c1.187,1.374,5.125,0.052,8.699-2.006c-1.771,3.854-2.775,8.111-1.243,9.181
		c1.859,1.298,6.837-2.533,9.999-6.306c-0.13,5.072,1.477,12.337,3.951,12.481c1.813,0.106,3.609-3.641,4.623-7.639
		c1.53,3.956,3.885,7.643,5.719,7.288c2.425-0.469,3.063-7.822,2.279-12.832c3.324,3.786,9.04,7.85,10.929,6.363
		c1.428-1.123,0.286-5.119-1.607-8.782c3.77,1.945,7.977,3.143,9.115,1.66c1.479-1.927-2.759-7.697-6.619-10.959
		c4.949,0.648,11.576,0.02,12.042-2.271c0.372-1.831-3.291-4.222-7.231-5.792c4.007-0.973,7.772-2.732,7.684-4.546
		c-0.121-2.477-7.369-4.154-12.441-4.075c3.804-3.123,7.683-8.063,6.404-9.936C183.506,539.937,179.238,540.897,175.367,542.631z
		 M170.118,567.848c-0.63,0.821-1.155,1.622-1.303,2.486c-1.067-0.002-2.014,0.614-2.987,1.379c-1.089,0.857-1.99,1.728-2.108,2.963
		c-0.931-0.443-2.026-0.33-3.208-0.102c-1.016,0.196-1.94,0.448-2.625,0.996c-0.797-0.709-1.915-0.876-3.149-0.948
		c-0.789-0.047-1.533-0.048-2.196,0.114c-0.124-1.325-1.107-2.181-2.297-3.01c-0.848-0.593-1.673-1.081-2.543-1.189
		c-0.047-1.065-0.705-1.984-1.514-2.921c-0.883-1.022-1.771-1.864-2.964-1.964c1.609-1.232,1.417-2.807,0.954-4.557
		c-0.265-1.001-0.579-1.906-1.172-2.551c0.652-0.845,0.744-1.97,0.732-3.207c-0.01-1.058-0.093-2.032-0.534-2.812
		c1.099-0.091,1.993-0.824,2.896-1.719c0.879-0.87,1.607-1.734,1.738-2.793c0.875-0.04,1.735-0.463,2.627-0.987
		c0.852-0.5,1.608-1.02,2.077-1.714c0.695,0.275,1.511,0.343,2.385,0.359c1.237,0.024,2.364-0.056,3.215-0.699
		c0.639,0.6,1.54,0.922,2.538,1.197c1.174,0.323,2.269,0.523,3.24,0.135c0.352,0.516,0.835,0.987,1.37,1.457
		c0.929,0.819,1.84,1.486,2.905,1.544c0.1,0.871,0.58,1.7,1.163,2.554c0.818,1.198,1.664,2.191,2.988,2.327
		c-0.169,0.661-0.175,1.406-0.136,2.194c0.06,1.236,0.217,2.355,0.917,3.159c-0.555,0.678-0.815,1.601-1.022,2.614
		c-0.282,1.385-0.404,2.651,0.352,3.683C171.529,566.153,170.818,566.936,170.118,567.848z"/>
	<circle fill="#F1F9F9" cx="158.126" cy="559.625" r="16.735"/>
</g>
<path display="none" fill="#6C63FF" d="M839.821,341.01c-8-1.32-28.762-19.67-28.762-19.67s25.592-10.66,33.58-9.34
	c8.01,1.317,13.434,8.877,12.115,16.885c-1.316,8.008-8.877,13.433-16.885,12.115L839.821,341.01z"/>
<path display="none" fill="#6C63FF" d="M830.93,264.96c2.42,7.74,23.459,25.79,23.459,25.79s7-26.82,4.561-34.56
	c-2.697-7.646-11.082-11.656-18.729-8.958c-7.262,2.563-11.309,10.302-9.271,17.729H830.93z"/>
<path display="none" fill="#6C63FF" d="M778.059,308.13c1.08,8,18.762,29.37,18.762,29.37s11.41-25.25,10.33-33.28
	c-0.889-8.059-8.141-13.872-16.199-12.984c-8.061,0.888-13.873,8.14-12.984,16.199C777.993,307.667,778.024,307.899,778.059,308.13z
	"/>
<path display="none" opacity="0.25" enable-background="new    " d="M839.821,341.01c-8-1.32-28.762-19.67-28.762-19.67
	s25.592-10.66,33.58-9.34c8.01,1.317,13.434,8.877,12.115,16.885c-1.316,8.008-8.877,13.433-16.885,12.115L839.821,341.01z"/>
<path display="none" opacity="0.25" enable-background="new    " d="M830.93,264.96c2.42,7.74,23.459,25.79,23.459,25.79
	s7-26.82,4.561-34.56c-2.697-7.646-11.082-11.656-18.729-8.958c-7.262,2.563-11.309,10.302-9.271,17.729H830.93z"/>
<path opacity="0.25" enable-background="new    " d="M778.059,308.13c1.08,8,18.762,29.37,18.762,29.37s11.41-25.25,10.33-33.28
	c-0.889-8.059-8.141-13.872-16.199-12.984c-8.061,0.888-13.873,8.14-12.984,16.199C777.993,307.667,778.024,307.899,778.059,308.13z
	"/>
<path display="none" fill="#6C63FF" d="M826.45,316.27c-7.85,2-34.289-6.27-34.289-6.27s19.07-20.11,26.92-22.15
	c7.848-2.035,15.859,2.677,17.895,10.525C839.01,306.223,834.297,314.235,826.45,316.27L826.45,316.27z"/>
<path display="none" fill="#6C63FF" d="M787.51,250.34c5.35,6.09,31.891,14.07,31.891,14.07s-4.48-27.35-9.83-33.44
	c-5.264-6.167-14.529-6.899-20.697-1.636c-6.166,5.264-6.898,14.53-1.635,20.696C787.327,250.135,787.418,250.238,787.51,250.34z"/>
<path display="none" fill="#6C63FF" d="M756.62,311.26c4.24,6.9,29.051,19.25,29.051,19.25s0.209-27.71-4-34.62
	c-4.451-6.776-13.553-8.662-20.33-4.21c-6.49,4.264-8.537,12.846-4.67,19.58H756.62z"/>
<linearGradient id="SVGID_1_" gradientUnits="userSpaceOnUse" x1="592.9702" y1="733.5986" x2="592.9702" y2="751.9795" gradientTransform="matrix(1 0 0 -1 137.0601 829.0098)">
	<stop  offset="0" style="stop-color:#808080;stop-opacity:0.25"/>
	<stop  offset="0.54" style="stop-color:#808080;stop-opacity:0.12"/>
	<stop  offset="1" style="stop-color:#808080;stop-opacity:0.1"/>
</linearGradient>
<path fill="url(#SVGID_1_)" d="M727.5,95.41c1.66-6.09,3.66-12.21,5.059-18.38C730.879,83.2,728.87,89.34,727.5,95.41z"/>
<linearGradient id="SVGID_2_" gradientUnits="userSpaceOnUse" x1="425.6992" y1="46.3101" x2="425.6992" y2="828.9946" gradientTransform="matrix(1 0 0 -1 137.0601 829.0098)">
	<stop  offset="0" style="stop-color:#808080;stop-opacity:0.25"/>
	<stop  offset="0.54" style="stop-color:#808080;stop-opacity:0.12"/>
	<stop  offset="1" style="stop-color:#808080;stop-opacity:0.1"/>
</linearGradient>
<path fill="url(#SVGID_2_)" d="M720.059,154.07c-0.139-0.24-0.238-0.48-0.35-0.7l0,0c0-0.1-0.1-0.18-0.139-0.28
	c-0.219,0.103-0.443,0.193-0.67,0.27c-0.441,0.17-0.891,0.33-1.352,0.46c-0.459,0.13-0.648,0.2-1,0.28
	c-0.289,0.1-0.588,0.177-0.889,0.23l0.08,0.18c0.369-0.08,0.729-0.15,1.1-0.25l0.1,1.24c0.42,0,0.811-0.06,1.189-0.06
	c0.18-0.01,0.361-0.01,0.541,0c0.779,0,1.459,0,2,0C720.459,154.99,720.241,154.52,720.059,154.07z M923.061,477.2
	c-4.701-6.33-14.08-74.271-14.08-74.271s-18.451-48.31-13.42-67.59c5.029-19.28-13.74-68.61-13.74-68.61s-12.4-5.39-13.07-13.39
	c0,0-50.631-16-53-28c-1.92-9.84-33.32-16.9-44.6-19.13c-3.441-13.88-6.9-26.83-9.451-33.9c-0.689-2.2-1.34-4.1-1.939-5.6
	c-4.311-11-17.631-12-27.291-11.12c-0.418-1.875-1.195-3.65-2.289-5.23c-0.16-0.542-0.477-1.026-0.91-1.39
	c-0.207-0.177-0.428-0.337-0.66-0.48c-0.174-0.324-0.404-0.615-0.68-0.86c-0.275-0.247-0.576-0.462-0.9-0.64
	c-0.232-0.126-0.473-0.236-0.719-0.33c-0.58-0.221-1.18-0.385-1.791-0.49c-0.713-0.146-1.434-0.24-2.16-0.28
	c1.766-0.772,3.34-1.923,4.609-3.37c0.865-1.016,1.51-2.201,1.891-3.48c0.316-1.063,0.459-2.171,0.42-3.28
	c-0.26,0.457-0.561,0.889-0.9,1.29c0.42-4.43-1.92-8.93-3.26-13.34c-1.623-5.741-1.924-11.776-0.879-17.65l0,0
	c1.34-8.86,4.66-17.82,6.91-26.84c0.006-0.05,0.006-0.1,0-0.15c1.18-4.48,1.91-9.066,2.18-13.69c0.389-9.33-2-18.64-5.84-27.14
	c-3.41-7.53-8.441-14.94-16.141-18c-5.721-2.31-12.131-1.94-18.289-2.32c-13.82-0.86-27-5.72-40.141-10.14
	c-13.141-4.42-26.66-8.44-40.49-7.67s-28.061,7.44-34.371,19.68c-2,3.82-3.148,8.07-5.539,11.66c-4.48,6.77-12.5,10.16-19.189,14.83
	c-6.691,4.67-12.581,11.3-15,19.21c-1.321,4.261-1.508,8.794-0.54,13.15l0,0c0.218,0.983,0.498,1.952,0.84,2.9
	c0.949,2.642,2.43,5.062,4.351,7.11c1.448,1.514,3.114,2.804,4.94,3.83l0,0c2.293,1.272,4.75,2.227,7.299,2.84
	c-0.09,0.3-0.18,0.62-0.279,0.93c-0.16,0.51-0.301,1-0.449,1.55c-0.33,1.23-0.641,2.48-0.9,3.74c-0.012,0.09-0.012,0.18,0,0.27
	c-1.229,5.688-1.846,11.491-1.84,17.31c-0.002,2.752,0.137,5.502,0.42,8.24l0,0c4,40.58,37.5,72.59,78.889,74.67
	c1.42,0.07,2.852,0.11,4.301,0.11c0.66,0,1.311,0,2,0c0.65,0.86,1.291,1.74,1.9,2.6c0.609,0.86,1.17,1.74,1.699,2.6l-1.449-1.5l0,0
	l-1.451-1.33c-0.393,0.54-0.83,1.045-1.309,1.51c-0.945-0.333-1.912-0.606-2.891-0.82l0,0c-4.15-0.92-10.471-1.26-18.789,1.25
	c-7.65,2.29-17,7-27.941,15.95l-53.309,32l-28.84,17.54l-10.391,25.4c0,0-7.81,30.18-16.5,64.76c-0.34,0.1-0.67,0.2-1,0.32
	c-0.703-0.08-1.411-0.12-2.12-0.12c-10.478-0.024-19.101,8.24-19.52,18.71c-17.28,21-18.26,42-14.2,51.641l0,0
	c0.367,0.902,0.83,1.765,1.38,2.569c2.66,3.84,7.63,13.74,12.67,24.29c-0.13,0.87-0.21,1.601-0.25,2.15
	c-0.009,0.18-0.009,0.36,0,0.54c0,0,3,45.31-7,58.3c-2.189,2.83-1.859,6.55,0,10.67l0,0c6.7,14.82,33.19,34.61,33.19,34.61
	s31.77-0.17,49.47-2.101c-0.05,1.78-0.09,3.551-0.13,5.28c-0.4,17.48-0.4,32.13-0.4,32.13l-0.66,18.33c0,0-6,38.63-9,49.28
	c-1.89,6.68,0.29,68.53,2.19,114h313.021c3.68-26.9-1.512-108.63-1.512-108.63s-4.93-21.13-5.109-39.551
	c-0.02-0.041-0.02-0.089,0-0.13c0-1.609,0-3.18,0.061-4.72l2.27-0.08l4.08-0.14h0.369c0,0,0.102-0.38,0.33-1l0,0
	c0.541-1.545,1.277-3.014,2.191-4.37c1.74-2.57,4.459-5.09,8.549-5.26c2.26-0.09,5.76-1.92,9.711-4.62
	c0.025,0.006,0.053,0.006,0.08,0c10.629-7.19,24.68-20.46,28.09-22.641c4.689-3,27.15-23,27.15-23s3.35-4.239,6.92-9.35l0.129-0.18
	c4.441-6.4,9.16-14.05,8-16.46c-2-4.32,1.34-14.65,1.34-14.65C938.811,508.83,927.76,483.53,923.061,477.2z M729.69,169.62
	c0.096,0.298,0.156,0.607,0.18,0.92c-0.25-0.33-0.5-0.68-0.75-1l-0.24-0.32l-0.17-0.24l0.381-0.52c0,0,0,0,0,0.07l0,0
	C729.354,168.854,729.557,169.224,729.69,169.62z M726.331,160.76c-1.09,0.22-1.951,0.42-2.51,0.57c-0.711-1.26-1.391-2.52-2-3.8
	C723.422,158.46,724.934,159.542,726.331,160.76z M724.45,162.34c-0.002-0.02-0.002-0.04,0-0.06l0.08,0.06l0,0
	c0.41,0.27,0.811,0.53,1.18,0.8l0,0c0.33,0.24,0.631,0.47,0.93,0.71c-0.199,0.35-0.42,0.71-0.639,1c-0.35-0.55-0.68-1.08-1-1.63
	C724.799,163,724.62,162.7,724.45,162.34z M718.45,150c1.932-0.19,3.879-0.19,5.811,0l0,0c0.27,0,0.51,0.05,0.75,0.09l0,0
	c0.543,0.084,1.074,0.221,1.59,0.41c1.182,1.653,1.91,3.588,2.109,5.61l-0.539,0.08l-0.531,0.1c-1,0.17-2,0.34-2.779,0.5l-1,0.21
	c-1.33,0.29-2.1,0.51-2.129,0.52c-0.131-0.27-0.262-0.52-0.4-0.78c-0.221-0.43-0.451-0.87-0.65-1.3
	c-0.201-0.43-0.461-0.92-0.67-1.37c-0.141-0.24-0.24-0.48-0.35-0.7l0,0c0-0.1-0.102-0.18-0.141-0.28
	c-0.059-0.106-0.109-0.216-0.15-0.33c-0.609-1.24-1.17-2.48-1.709-3.7c-0.061-0.12-0.111-0.25-0.16-0.37l0.76-0.05v0.26L718.45,150z
	 M479.86,770.34c-0.08-14.89-1.16-31-4.16-46.12c-1.28-6.43-2.601-12.859-3.94-19.18c-0.34-1.58-0.67-3.14-1-4.7l-3.08,0.41H467.4
	c-8.4-39.61-17.181-74.51-17.181-74.51s-17.439-66.59-15.42-71.9c0.26-0.689-0.069-2.55-0.81-5.28
	c-4.221-15.14-21.84-56.859-28-71.119l0,0c0-0.061-0.05-0.131-0.07-0.181l0,0c-1-2.39-1.72-4-1.939-4.47l1.449-21.28l0.08-1.279
	l0.19-2.721l-0.08-0.069l0.08-1.261c0,0-15.22-12.479-41-21.489c-1-0.36-2.061-0.71-3.11-1.051c1.29-8.609,3-18.329,5.23-27.8
	c0.21-0.95,0.439-1.87,0.68-2.8l0,0c0.21-0.93,0.45-1.83,0.69-2.74c0.38-1.48,0.79-2.94,1.21-4.38c1.39-0.44,2.76-0.93,4.109-1.45
	l0.521-0.2c34.393-13.383,53.612-50.114,45-86l0,0c-2.375-9.841-6.761-19.085-12.88-27.15l0,0c-0.461-0.62-0.95-1.24-1.44-1.85
	s-1.08-1.29-1.63-1.91c2.89-6.57,6.3-12.82,6.58-19.21c0.05-0.809,0.05-1.621,0-2.43l0,0v-0.1c-0.37-4.11-2.19-8.27-6.43-12.64
	c-6.19-6.41-15-9.66-23.811-11.22c-8.81-1.56-17.79-1.6-26.65-2.65c-14.689-1.76-29-6.29-43.689-7.68
	c-18.094-1.676-36.312,1.428-52.83,9c-10.93,5-22,13.74-22.66,25.73c-0.54,9.91,6.36,19.41,4.62,29.2
	c-1.73,9.62-11.53,17.189-10.67,26.92c0.33,3.8,2.28,7.2,4.72,10.23l0,0c0.84,1,1.73,2,2.65,3c3.56,3.77,7.48,7.39,9.47,12.14
	c0.08,0.2,0.16,0.4,0.23,0.6c1.69,4.69,0.93,10.62-3.25,13.31c0.023,0.018,0.041,0.042,0.05,0.07l0,0c0.06,0.08,0.12,0.14,0.17,0.22
	c0.006-0.016,0.006-0.034,0-0.05c1.482,1.757,3.48,3.002,5.71,3.56l0.85,0.26c-0.69,0.75-1.34,1.53-2,2.35l-0.43,0.57
	c-1.102,1.482-2.104,3.035-3,4.65c-0.51,0.9-1,1.8-1.41,2.7c-1.371,2.744-2.363,5.66-2.95,8.67c-1.07,6.62,0.44,13.52-1.18,20
	c-2,8-8.33,14.14-11.9,21.57c-6.76,14-2.93,30.431-1.57,45.891c1.85,21-1.15,42.09-4.14,62.95
	c-1.587,11.093-3.173,22.196-4.76,33.31c-4,27.894-8,55.786-12,83.68c-1.46,10.22-3.19,21-10,28.891h0.07c0,0,0,0.06-0.07,0.08
	c2.044,0.894,4.219,1.453,6.44,1.659l0,0c8.89,0.891,18.31-3.409,26.31-8.109c6.335-3.661,12.335-7.874,17.93-12.59
	c-0.82,3-1.7,6.27-2.64,9.789c0.003,0.034,0.003,0.067,0,0.101l0,0c-11.29,43-29.45,121.83-29.45,121.83s-1.65,3.43-3.79,8.54h282
	c-3.3-4-6.37-7.83-8.77-10.92L479.86,770.34z M271.06,372.74c0.07-0.12,0.12-0.23,0.19-0.34c0,0.32,0,0.63,0,0.93s0,0.57,0,0.85
	c0,0.28,0,0.25,0,0.39c0,0.14,0,0,0,0c0,0.41-0.09,0.82-0.16,1.229l0,0c0,0,0,0.05,0,0.09l1,0.37l1.16,0.48l0,0
	c6.854,2.707,13.793,5.156,20.82,7.35c0.72,0.23,1.45,0.45,2.18,0.66l0.15,1.24c0.18,1.27,0.35,2.56,0.51,3.85c0,0,0,0.06,0,0.1
	c0.45,3.571,0.89,7.13,1.28,10.61c0,0-18.36-7-18.13,3.63c-0.011,0.19-0.011,0.381,0,0.57c-0.021,0.253-0.021,0.507,0,0.76
	c0.17,8.28,2.76,13.19,3.28,15.71c-0.031,0.104-0.086,0.2-0.16,0.28c-0.444,0.966-0.597,2.039-0.44,3.09
	c-0.018,1.789,0.123,3.576,0.42,5.34c-0.54,0.33-1.07,0.66-1.6,1l0,0c-0.4,0.25-0.78,0.53-1.17,0.811
	c-2.453-8.51-5.663-16.782-9.59-24.72c-2.75-5.66-5.84-11.561-5.81-17.771c0-0.4,0-0.81,0.05-1.22c0.111-1.8,0.454-3.578,1.02-5.29
	c0.23-0.65,0.48-1.29,0.76-1.92c0.654-1.497,1.385-2.959,2.19-4.38l0,0c0.52-0.94,1.07-1.87,1.6-2.81c0.17-0.28,0.33-0.57,0.49-0.85
	L271.06,372.74z M720.059,154.07c-0.139-0.24-0.238-0.48-0.35-0.7l0,0c0-0.1-0.1-0.18-0.139-0.28
	c-0.219,0.103-0.443,0.193-0.67,0.27c-0.441,0.17-0.891,0.33-1.352,0.46c-0.459,0.13-0.648,0.2-1,0.28l-0.889,0.23l0.08,0.18
	c0.369-0.08,0.729-0.15,1.1-0.25l0.1,1.24c0.42,0,0.811-0.06,1.189-0.06h0.541c0.779,0,1.459,0,2,0
	C720.459,154.99,720.241,154.52,720.059,154.07z"/>
<path fill="#4AA9DE" d="M501.56,300.95l-6,2.65c0,0-39.109,151.94-39.109,164.22c0,12.279,82.93,80.609,82.93,80.609l12.941-87.34
	C552.321,461.09,533.74,260.8,501.56,300.95z"/>
<path fill="#FFC1C7" d="M683.469,252.62l-34.648-18.08c-1.941-8.273-5.385-16.12-10.16-23.15c-5.07-7.32-11.811-14.51-20.211-18.26
	c-21.23-9.52,89.801-59.49,89.801-59.49c1.748,6.002,3.809,11.911,6.17,17.7c5.719,14.12,15.209,32.38,27.439,37.58
	C762.651,197.77,683.469,252.62,683.469,252.62z"/>
<path opacity="0.1" enable-background="new    " d="M714.42,151.34c-9.729,34.215-40.229,58.39-75.76,60.05
	c-5.07-7.32-11.811-14.51-20.211-18.26c-21.23-9.52,89.801-59.49,89.801-59.49C709.999,139.643,712.059,145.551,714.42,151.34z"/>
<path fill="#FFC1C7" d="M717.54,126.11c0.012,45.691-37.02,82.739-82.709,82.75c-45.691,0.011-82.74-37.019-82.75-82.71
	c-0.012-45.69,37.02-82.739,82.709-82.75c0.01,0,0.02,0,0.031,0c45.475-0.21,82.51,36.484,82.719,81.958
	C717.542,125.609,717.542,125.859,717.54,126.11z"/>
<polygon fill="#575A89" points="729.481,242 706.92,294.64 687.02,329.58 623.321,329.58 604.741,281.81 612.27,232.27 
	660.92,232.27 692.331,230.5 702.94,226.96 709.78,230.84 "/>
<path opacity="0.1" enable-background="new    " d="M721.709,171.83c0,0,14.07,3,1.471,13.33s-56.07,43.18-56.07,43.18
	s15.27,13.6,12.109,29.53l50.59-28.2l9-45.12C738.809,184.55,739.821,170.99,721.709,171.83z"/>
<path opacity="0.1" enable-background="new    " d="M677.059,228.34l-32.18,5.31c0,0,6.641,24.55,3.32,31.52
	c-0.1,0.217-0.184,0.44-0.25,0.67l-13.129,35.49l9.84,27.87l34.059-46.45l-11.609-17.58c0,0,12.27-16.26,19.57-21.9
	S677.059,228.34,677.059,228.34z"/>
<path fill="#F3DFE3" d="M677.059,226.97l-32.18,5.3c0,0,6.641,24.55,3.32,31.52c-0.1,0.217-0.184,0.44-0.25,0.67l-13.129,35.49
	l9.84,27.87l34.059-46.48l-11.609-17.58c0,0,12.27-16.26,19.57-21.9C693.981,236.22,677.059,226.97,677.059,226.97z"/>
<path fill="#575A89" d="M723.059,169.18c0,0,14.07,3,1.461,13.33c-12.609,10.33-57.41,45.83-57.41,45.83s16.59,10.95,13.439,26.87
	l50.59-28.19l9-45.12C740.139,181.9,741.139,168.34,723.059,169.18z"/>
<path opacity="0.1" enable-background="new    " d="M640.87,214.52c0,0,3.07,5.74,16.621,16.09c0,0-22.561,12-13.932,28.87l-34.51-9
	l-5.309-16.59L640.87,214.52z"/>
<path fill="#575A89" d="M639.54,213.2c0,0,3.07,5.74,16.621,16.09c0,0-22.561,11.94-13.93,28.86l-34.5-9l-5.311-16.58L639.54,213.2z
	"/>
<path opacity="0.1" enable-background="new    " d="M729.481,242l-22.561,52.64l-19.861,34.94h-63.738l-18.58-47.77l7.52-49.54
	h13.529c-0.219,11.56,4,25.14,3.73,30.19c-0.461,8.3,12.381,53.08,12.381,53.08s26.869-43.46,37.479-47.33
	c6.67-2.43,20.801-22.65,30.391-37.37L729.481,242z"/>
<path fill="#F1F9F9" d="M818.35,519.01l-2.291,2.88c0,0,16.592,83.271,12,102.181c-0.779,3.408-1.225,6.885-1.328,10.38v0.149
	c-0.811,19.24,5,44.211,5,44.211s4.639,73.6,2,103.869H523.11c-1.82-44.76-3.78-102.75-2-109.18c3-10.61,9-49.1,9-49.1l0.659-18.24
	c0,0,0-17.63,0.54-37.271c0.23-8.829,0.57-18.1,1.061-26.319c0.63-10.34,1.51-19.05,2.72-23.33c0.745-3.244,1.174-6.553,1.28-9.88
	c0-0.311,0-0.63,0.06-0.95c0-1,0.101-2.08,0.141-3.19c0-0.31,0-0.62,0-1c0.189-6.439,0.119-14.08-0.091-22c0-0.43,0-0.87,0-1.31
	c-0.17-5.94-0.42-12-0.699-17.76c-0.87-18-2-33.221-2-33.221L495.63,303.53l10.28-25.32l28.529-17.48l52.75-31.85
	c25.73-21.15,42.67-18.61,49.131-16.29c0.627,0.214,1.24,0.465,1.84,0.75c0.199,0.1,0.359,0.18,0.51,0.27
	c0.205,0.097,0.402,0.211,0.59,0.34l0,0c-1.77,0.851-3.307,2.117-4.48,3.69c-1.322,1.79-2.266,3.832-2.77,6
	c-0.338,1.344-0.576,2.711-0.711,4.09c-0.129,1.45-0.18,2.95-0.18,4.46c0.072,3.312,0.355,6.615,0.85,9.89c0,0.06,0,0.14,0,0.22
	c0.33,2.34,0.74,4.63,1.141,6.78c-0.004,0.037-0.004,0.073,0,0.11c0.461,2.51,0.92,4.83,1.23,6.83c0.061,0.36,0.109,0.69,0.16,1
	c0.221,1.322,0.324,2.66,0.309,4c0.113,3.235,0.549,6.451,1.301,9.6c0.26,1.32,0.561,2.73,0.891,4.2c0.449,2,0.939,4.18,1.469,6.4
	c0.291,1.22,0.602,2.48,0.92,3.73c0.121,0.5,0.25,1,0.371,1.51l0.199,0.79c2.131,8.47,4.441,16.9,5.861,22
	c0.84,3,1.369,4.85,1.369,4.85s15.061-24.35,27.08-38.21c0.18-0.2,0.34-0.39,0.51-0.57c1.189-1.37,2.359-2.62,3.48-3.72
	c2.449-2.44,4.65-4.18,6.42-4.82c0.377-0.139,0.742-0.31,1.09-0.51c4.92-2.79,12.859-12.92,20.289-23.53
	c0.73-1,1.441-2.09,2.16-3.12c1.65-2.38,3.25-4.77,4.76-7.06c1.16-1.75,2.271-3.45,3.32-5.07c5-7.78,8.521-13.58,8.521-13.58
	l6.939-0.31l1.209-0.06h0.811l31.51-1.46c0,0,1.361,0.23,3.6,0.68c0.121,0,0.24,0,0.371,0.08c11.18,2.22,42.24,9.25,44.141,19
	c2.318,11.94,52.42,27.87,52.42,27.87c0.658,8,12.93,13.27,12.93,13.27s18.58,49.1,13.609,68.34c-4.91,19,12.779,66,13.25,67.32l0,0
	l-3.391,4.28L818.35,519.01z"/>
<path opacity="0.1" enable-background="new    " d="M721.7,168.34c0,0,30.67-8.7,37.641,9.21c6.971,17.91,22.561,90.24,22.561,90.24
	s-40.48,7.63-51.092,0c-6.223-4.528-13.926-6.542-21.568-5.64l-22.891,15.59l-6.76-2c0,0,36.619-54.44,44.58-72.94
	C732.129,184.3,734.821,176.03,721.7,168.34z"/>
<path fill="#4AA9DE" d="M720.37,164.34c0,0,30.689-8.7,37.689,9.21c7,17.91,22.561,90.24,22.561,90.24s-40.469,7.63-51.09,0
	c-6.219-4.528-13.92-6.543-21.561-5.64l-22.91,15.59l-6.76-2c0,0,36.621-54.44,44.58-72.94
	C730.84,180.3,733.491,172.05,720.37,164.34z"/>
<path opacity="0.1" enable-background="new    " d="M514.5,452.89c0,0,22.89,5.641,27.21,18.58
	c4.32,12.94-16.92,13.271-16.92,13.271S511.85,461.85,514.5,452.89z"/>
<path opacity="0.1" enable-background="new    " d="M599.76,548.43c0,0-56.061,114.79-43.121,125.74
	C569.581,685.12,599.76,548.43,599.76,548.43z"/>
<path opacity="0.1" enable-background="new    " d="M677.059,463.84c0,0,44.791,111.5,35.83,128.72c-8.959,17.221,19.24,0,19.24,0
	L677.059,463.84z"/>
<path fill="#FFC1C7" d="M739.43,573.98c0,0-151.279,7.3-107.15,54.409c44.131,47.11,134.689,2,134.689,2L739.43,573.98z"/>
<path opacity="0.1" enable-background="new    " d="M717.54,126.11c0.014,10.85-2.117,21.596-6.27,31.62
	c-1.391,0.16-2.779,0.26-4.119,0.32c-2-4.39-0.932-9.46-0.891-14.29c0.039-4.83-1.74-10.51-6.391-11.81
	c-9.27-2.61-15.67,14.72-24.811,11.59c-7-2.38-5.17-13-9.199-19.13c-3.189-4.85-9.58-6.22-14.551-9.26
	c-10.568-6.49-10.25-16.87-15.158-26.69c-5.141-10.29-16-7.25-25.432-1.18c-7.158,4.62-13.34,10.81-21,14.49
	c-6.629,3.2-14.08,4.36-21.43,4.53c-4.525,0.176-9.051-0.303-13.439-1.42c11.744-44.155,57.061-70.429,101.217-58.684
	c36.227,9.636,61.447,42.427,61.463,79.914H717.54z"/>
<path fill="#F3DFE3" d="M610.75,84.63c-7.17,4.62-13.34,10.8-21,14.5c-6.631,3.19-14.08,4.35-21.43,4.52
	c-9,0.2-18.691-1.38-24.84-7.88c-5.65-6-7-15.23-4.61-23.1s8.121-14.4,14.849-19.13c6.73-4.73,14.541-8,19-14.77
	c2.361-3.58,3.5-7.8,5.461-11.61c6.27-12.19,20.369-18.79,34-19.61c13.629-0.82,27.141,3.24,40.119,7.64
	c12.98,4.4,26.061,9.24,39.76,10.15c6.102,0.38,12.441,0,18.102,2.31c7.609,3.09,12.6,10.48,16,18c3.809,8.48,6.18,17.74,5.779,27
	c-0.84,19.77-13.9,39.17-8.16,58.11c1.52,5.05,4.371,10.23,2.85,15.28c-2.219,7.37-11.729,9.05-19.42,9.4
	c-2-4.39-0.93-9.47-0.889-14.29c0.039-4.82-1.74-10.51-6.381-11.81c-9.279-2.59-15.68,14.71-24.801,11.59
	c-6.949-2.39-5.148-13-9.189-19.13c-3.189-4.86-9.59-6.22-14.549-9.26c-10.57-6.49-10.25-16.87-15.16-26.69
	C631.059,75.51,620.19,78.55,610.75,84.63z"/>
<path fill="#4AA9DE" d="M464.06,465.16l-7.63,2.66c0,0,3,45.12-7,58.06c-10,12.94,32.84,45.11,32.84,45.11s58.721-0.33,60.381-5
	c1.659-4.67-3-83.601-3-83.601s-31.521-12.279-28.87-31.85c0,0-9.62,46.11-23.88,44.12C472.64,492.67,456.45,480.76,464.06,465.16z"
	/>
<ellipse opacity="0.1" enable-background="new    " cx="489.51" cy="490.21" rx="20.13" ry="18.41"/>
<path fill="#FFC1C7" d="M511.52,466.49c0,0-4-122.08-38.819-94.88c-34.82,27.201-35.16,59.73-28.53,69.34
	c6.63,9.609,27.89,57.72,27.89,57.72l0,0c11.626,6.738,26.513,2.775,33.251-8.851c1.288-2.223,2.216-4.636,2.749-7.149
	L511.52,466.49z"/>
<path opacity="0.1" enable-background="new    " d="M728.731,157.26c-0.164-0.536-0.475-1.015-0.9-1.38
	c-1.721-1.57-5.42-2.12-11-1.64l0.229,2.64c7.441-0.64,8.91,0.84,9.102,1.09v0.25l0.229,0.33c1.877,2.521,2.604,5.716,2,8.8
	c-1.629,8.15-11.639,14.64-11.738,14.71l-0.24,0.14l-0.15,0.23c-4.32,6.41-28.75,24.5-35.141,29.18l-0.561-0.64
	c-2.859,2.48-28,24.49-29.359,32.92c-0.879,5.29-6.84,7.34-9,7.91c-2.279-1.73-9.68-7.62-13.529-14.22
	c-3.611-6.21,10.92-18.33,12.199-23.06l-2-2.05c-0.209,0.76-18.869,18.2-13.68,27.11c4.16,7.15,11.76,13.27,14.42,15.29
	c-0.85,7.72-6.141,53.05-14.27,63.79c-10.1,13.35-18.59,80.63-17.65,104.12c0.83,20.87-4.619,60.29-22.82,77.22
	c-6.383,6.198-15.246,9.144-24.07,8h-0.219h-0.221c-0.26,0-26.66,2.7-48.84-16c-18.149-15.27-28.43-40.189-30.569-74.09h-0.44
	l-0.18-9.87c10.504-1.64,17.69-11.484,16.051-21.988c-1.64-10.504-11.483-17.69-21.988-16.051
	c-10.504,1.64-17.69,11.484-16.051,21.989c1.469,9.408,9.596,16.329,19.118,16.281h0.22l0.18,9.81l-0.88,0.06
	c2.2,35,13,60.891,32,76.881c14.441,11.967,32.888,18.003,51.611,16.89c1.328,0.146,2.664,0.219,4,0.22
	c8.58,0.044,16.838-3.276,23-9.25c19.17-17.85,25-58.72,24.09-80.3c-1-24.89,7.91-89.75,16.85-101.56
	c8.76-11.59,14.07-56.75,15-65.5c3.17-0.89,10.34-3.7,11.561-11c0.879-5.28,17.67-21.55,28-30.56l-0.311-0.36
	c5.561-4.06,22.85-16.86,31.42-25.08c2.66-2.55,5.301-5.1,8.061-7.53c3.32-2.94,7.539-7.61,8.65-13.13
	C731.674,164.177,730.885,160.342,728.731,157.26z"/>
<path fill="#353146" d="M639.27,254.24c-0.42-0.29-10.381-7.42-15.369-16c-5.182-8.91,13.479-26.34,13.68-27.1l2,2.05
	c-1.271,4.72-15.801,16.85-12.191,23.05c4.551,7.83,14.131,14.68,14.23,14.75L639.27,254.24z"/>
<path fill="#E8F5FF" d="M679.821,213.55l-1.561-2.15c0.32-0.23,31.73-22.95,36.68-30.3l0.16-0.22l0.23-0.15
	c0.1-0.07,10.109-6.55,11.74-14.71c0.607-3.081-0.119-6.275-2-8.79l-0.23-0.34v-0.24c-0.201-0.26-1.67-1.73-9.109-1.09l-0.23-2.65
	c5.59-0.48,9.279,0.07,11,1.64c0.428,0.369,0.742,0.851,0.91,1.39c2.186,3.073,3.002,6.913,2.26,10.61
	c-1.111,5.53-5.32,10.2-8.65,13.13c-2.75,2.43-5.4,5-8.051,7.53C702.92,196.84,680.92,212.76,679.821,213.55z"/>
<rect x="476.537" y="404.582" transform="matrix(-0.9998 0.0184 -0.0184 -0.9998 963.247 816.3979)" fill="#E8F5FF" width="2.65" height="16.11"/>
<circle fill="#E9B2BC" cx="476.17" cy="387.65" r="19.35"/>
<circle fill="#FFF2FB" cx="476.17" cy="387.65" r="16.07"/>
<path fill="#353146" d="M563.331,510.84c-1.336,0.002-2.672-0.068-4-0.21c-18.721,1.103-37.164-4.933-51.611-16.89
	c-19-16-29.779-41.86-32-76.891l4-0.25c2.141,33.9,12.42,58.83,30.58,74.091c22.181,18.649,48.57,16,48.83,16h0.221h0.221
	c8.826,1.138,17.689-1.808,24.08-8c18.189-16.931,23.639-56.351,22.809-77.221c-1-23.51,7.49-90.79,17.6-104.13
	c8.852-11.69,14.342-64.38,14.4-64.91l0.15-1.5l1.48-0.26c0.09,0,8.73-1.64,9.811-8.1c1.398-8.42,26.5-30.43,29.35-32.92l2.609,3
	c-10.369,9-27.16,25.28-28,30.57c-1.221,7.32-8.391,10.12-11.551,11c-1,8.76-6.27,53.91-15,65.5
	c-8.939,11.81-17.85,76.669-16.85,101.56c0.861,21.58-4.91,62.46-24.08,80.3C580.208,507.568,571.93,510.894,563.331,510.84z"/>
<g opacity="0.1">
	<path d="M726.059,102.47c1.641-6.06,3.621-12.16,5-18.3C729.411,90.34,727.42,96.41,726.059,102.47z"/>
	<path d="M709.331,150.09c-2-4.39-0.93-9.47-0.891-14.29c0.041-4.82-1.74-10.46-6.381-11.81c-9.279-2.59-15.68,14.72-24.799,11.59
		c-7-2.39-5.15-13-9.189-19.13c-3.191-4.86-9.58-6.22-14.541-9.26c-10.58-6.49-10.26-16.87-15.16-26.69
		c-5.15-10.3-16-7.26-25.439-1.18c-7.17,4.62-13.34,10.81-21,14.5c-6.631,3.19-14.08,4.35-21.43,4.52
		c-8.951,0.21-18.689-1.38-24.84-7.88c-4.741-5-6.451-12.33-5.47-19.2c-0.17,0.47-0.32,0.94-0.471,1.41
		c-2.399,7.87-1,17.12,4.611,23.1c6.15,6.5,15.889,8.08,24.84,7.88c7.359-0.17,14.799-1.33,21.439-4.52c7.68-3.7,13.85-9.88,21-14.5
		c9.439-6.08,20.301-9.12,25.439,1.18c4.9,9.82,4.592,20.2,15.16,26.69c5,3,11.352,4.4,14.551,9.26c4,6.15,2.23,16.74,9.189,19.13
		c9.111,3.12,15.51-14.18,24.791-11.59c4.639,1.3,6.43,7,6.379,11.81c-0.049,4.81-1.09,9.9,0.891,14.29
		c7.689-0.35,17.199-2,19.43-9.4c0.307-1.062,0.449-2.165,0.42-3.27C724.61,148.34,716.25,149.78,709.331,150.09z"/>
</g>
<path opacity="0.1" enable-background="new    " d="M890.061,396.49l11.609,12.279c0,0,9.289,67.671,13.93,74
	c4.641,6.33,15.6,31.511,5.311,50.421c0,0-3.32,10.29-1.33,14.6s-14.92,25.88-14.92,25.88s-22.23,19.9-26.881,22.89
	c-4.65,2.99-29.189,26.87-37.48,27.2c-8.289,0.33-11,10.62-11,10.62l-46.779,1.66c0,0-25.84-1.35-31.461,2.3
	c0,0,3-39.479-25.869-65.359l36.82-13.271c0,0,13.939-6,18.25-12.27c2.711-3.845,6.557-6.743,11-8.29c0,0,10.279-7.301,10.609-11.28
	c0.33-3.98,12.57-8.86,12.57-8.86l-6.93-59.149l3.65-98.2c0,0,11.609-82.28,36.16-77.63
	C871.87,288.68,890.061,396.49,890.061,396.49z"/>
<path fill="#4AA9DE" d="M894.061,396.49l11.609,12.279c0,0,9.289,67.671,13.93,74c4.641,6.33,15.6,31.511,5.311,50.421
	c0,0-3.311,10.29-1.32,14.6s-14.93,25.88-14.93,25.88s-22.23,19.9-26.881,22.89c-4.65,2.99-29.189,26.87-37.48,27.2
	c-8.289,0.33-11,10.62-11,10.62l-46.779,1.66c0,0-25.859-1.35-31.461,2.3c0,0,3-39.479-25.869-65.359l36.82-13.271
	c0,0,13.939-6,18.25-12.27c2.711-3.845,6.557-6.743,11-8.29c0,0,10.279-7.301,10.609-11.28c0.33-3.98,12.57-8.86,12.57-8.86
	l-6.93-59.149l3.65-98.2c0,0,11.609-82.28,36.16-77.63C875.87,288.68,894.061,396.49,894.061,396.49z"/>
<path opacity="0.1" enable-background="new    " d="M850.901,495.69c0,0,34.17-9,43.129,2
	C902.991,508.69,850.901,495.69,850.901,495.69z"/>
<path opacity="0.1" enable-background="new    " d="M842.94,510.78c11.609,8.13,47.439,8.46,47.439,8.46L842.94,510.78z"/>
<path opacity="0.1" enable-background="new    " d="M860.52,551.42c1,0.33,24.631,25.55,34.551,17.92S860.52,551.42,860.52,551.42z"
	/>
<path opacity="0.1" enable-background="new    " d="M542.28,339.76c0,0,6.939,47.78,3.519,67.24
	c-3.419,19.46,9.061,43.57,9.061,43.57L542.28,339.76z"/>
<path fill="#FFCCD0" d="M388.64,359.19c-8,6.27-13.84,21.11-18.069,37.42c-7.381,28.45-9.79,61.439-9.79,61.439
	s-63.7-14.6-59.061-21.229c2.92-4.17-1-35.59-4.27-58.37c-1.95-13.46-3.69-23.91-3.69-23.91S410.54,341.93,388.64,359.19z"/>
<path opacity="0.1" enable-background="new    " d="M388.64,357.86c-8,6.28-13.84,21.11-18.069,37.42
	c-25.857,7.851-53.937,0.881-73.12-18.15c-1.95-13.47-3.69-23.92-3.69-23.92S410.54,340.61,388.64,357.86z"/>
<path fill="#FFCCD0" d="M422.88,322.12c0.016,40.692-32.96,73.692-73.652,73.708c-40.692,0.015-73.692-32.96-73.708-73.652
	s32.959-73.692,73.652-73.708c22.356-0.008,43.508,10.134,57.498,27.572C417.159,289.108,422.877,305.363,422.88,322.12z"/>
<path opacity="0.1" enable-background="new    " d="M480.96,782.68h-21l-1.77-37.09l-1.851-38.39c0,0,4.771-0.71,12.37-1.771
	l3.07-0.41h0.25c1.66,7.79,3.3,15.79,4.88,23.78c2.63,14.185,3.998,28.574,4.09,43c0,1,0,2,0,2.94
	C481.06,777.41,481,780.08,480.96,782.68z"/>
<path fill="#254F64" d="M476.93,782.68H213.57c1.14-2.59,1.9-4.159,1.9-4.159s21.07-92.181,31.78-131.181
	c0.003-0.033,0.003-0.066,0-0.1c1.338-5.298,2.954-10.521,4.84-15.65l0,0c0.122-0.349,0.279-0.684,0.47-1
	c5.3-8.62,11.94-17.91,2.65-31.18c-9.29-13.271-6-71.66-6-71.66s11.28-49.77,23.22-76.31c1.812-4.111,4.383-7.844,7.58-11
	c1.04-1.017,2.149-1.959,3.32-2.82l0,0c0.891-0.669,1.819-1.287,2.78-1.85l0.19-0.12c5.016-2.844,10.586-4.573,16.33-5.07
	c4.081-0.427,8.199-0.313,12.25,0.34c19.36,2.84,34.86,7.59,47.18,13c33.391,14.67,43.5,34.33,43.7,34.74l0,0l0.08,0.17
	c1.34,3.13,20.94,48.89,28,70.24c1.83,5.56,2.83,9.47,2.43,10.54c-2,5.3,15.261,71.649,15.261,71.649s8,32,16,69.51
	c0.35,1.561,0.68,3.12,1,4.7c1.43,6.811,2.85,13.75,4.22,20.681c2.654,14.281,4.023,28.773,4.09,43.3
	C476.986,773.977,477.017,778.387,476.93,782.68z"/>
<path opacity="0.1" enable-background="new    " d="M301.06,407.76c0,0-18.17-7-17.95,3.62c0.22,10.62,4.43,15.7,3.1,17.25
	s0.66,10.84,0.66,10.84s24.55,0,35.83,5.08s52.859,15.26,58.17,18.36c5.31,3.1,25,17,25,17l1.77-26.32c0,0-20.35-16.81-53.739-25.43
	C320.51,419.54,301.06,407.76,301.06,407.76z"/>
<path fill="#F3DFE3" d="M301.06,406.43c0,0-18.17-7-17.95,3.62c0.22,10.62,4.43,15.7,3.1,17.25s0.66,10.84,0.66,10.84
	s24.55,0,35.83,5.091c11.28,5.09,52.859,15.26,58.17,18.35c5.31,3.09,25,17,25,17l1.79-26.24c0,0-20.351-16.81-53.74-25.43
	S301.06,406.43,301.06,406.43z"/>
<path opacity="0.1" enable-background="new    " d="M355.91,469.77c0,0,34.72,37.591,32.95,48
	C387.09,528.18,355.91,469.77,355.91,469.77z"/>
<path fill="none" d="M384.22,683.19c0,0-13.489,27.43-6.189,25.659C385.33,707.08,384.22,683.19,384.22,683.19z"/>
<path opacity="0.1" enable-background="new    " d="M299.51,605.56c0,0-25.45,23.45-32.95,24.78s5.75,5.75,14.37,2.22
	c8.62-3.529,27-12.819,27-12.819L299.51,605.56z"/>
<path fill="#FFCCD0" d="M487.27,782.68h-59.35c-8.3-7.199-16.15-13.869-21.15-17.88c-8-6.42-13.77-15.87-17.449-23.47
	c-0.83-1.73-1.551-3.35-2.16-4.82c-1.093-2.532-2.054-5.119-2.88-7.75l43.95-26.1c2.429,2.065,4.711,4.298,6.829,6.68l0.53,0.61
	c2.44,2.88,4.59,6.149,4.78,8.83c0.22,3.12,8.899,15.189,17.77,26.78c9,11.789,18.221,23.06,18.83,23.819l0,0c0,0,1.521,2.07,4,5.25
	C482.72,776.93,484.88,779.69,487.27,782.68z"/>
<path opacity="0.1" enable-background="new    " d="M406.67,276.04c-2.11,4.76-4,9.7-4.28,15c-0.79,15.3,0.49,49.51-16.45,57.19
	c-8.39,3.78-17.369-4.52-26.569-4.72c-6.62-0.14-12.69,4.061-16.73,9.311s-6.55,11.479-9.479,17.42
	c-2.667,5.392-5.739,10.573-9.19,15.5c-1.031,1.508-2.167,2.941-3.399,4.29c-37.481-15.816-55.045-59.021-39.229-96.502
	c15.815-37.481,59.021-55.044,96.502-39.229c11.268,4.755,21.175,12.24,28.826,21.781V276.04z"/>
<path fill="#254F64" d="M401.06,288.34c-0.8,15.3,0.49,49.51-16.46,57.18c-8.39,3.78-17.369-4.51-26.569-4.71
	c-6.62-0.15-12.681,4.06-16.73,9.3c-4.05,5.24-6.54,11.48-9.479,17.43c-2.668,5.391-5.74,10.572-9.19,15.5
	c-2.06,2.92-4.34,5.85-7.51,7.49c-5.521,2.88-12.21,1.26-18.13-0.59c-7.68-2.42-15.247-5.146-22.7-8.18
	c0.171-1.125,0.258-2.262,0.26-3.4c-0.22,0.42-0.46,0.81-0.7,1.23l-0.47,0.82c-0.85,1.5-1.68,3-2.44,4.54
	c-0.29,0.59-0.57,1.2-0.82,1.81c-1.006,2.27-1.637,4.688-1.87,7.16c-0.51,6.67,2.78,13,5.7,19c11.23,23.21,18.17,50.35,9.72,74.7
	c-3.66,10.59-10,20-14.63,30.229c-8.094,18.119-10.476,38.273-6.83,57.78c2.31,12.12,6.94,24.12,5.8,36.41
	c-2,21.15-20.24,36.89-38.51,47.71c-9.87,5.82-21.95,11-32.43,6.4c6.68-7.801,8.4-18.59,9.84-28.771
	c3.94-27.767,7.89-55.547,11.85-83.34c1.58-11.06,3.157-22.12,4.73-33.18c2.94-20.78,5.92-41.79,4.08-62.7
	c-1.34-15.41-5.12-31.771,1.56-45.72c3.53-7.391,9.82-13.511,11.78-21.47c1.61-6.47,0.11-13.35,1.17-19.94
	c0.58-2.999,1.563-5.905,2.92-8.64c1.729-3.712,3.985-7.154,6.7-10.22c-2.68-0.78-5.18-1.85-6.7-4.09c4.3-2.8,4.95-9.11,3-13.85
	c-1.95-4.74-5.85-8.35-9.36-12.09c-3.51-3.74-6.89-8.1-7.33-13.2c-0.85-9.71,8.85-17.23,10.56-26.81c1.73-9.75-5.11-19.23-4.56-29.1
	c0.64-11.93,11.6-20.6,22.42-25.63c16.328-7.558,34.365-10.664,52.28-9c14.58,1.38,28.69,5.89,43.23,7.64
	c8.77,1,17.66,1.1,26.37,2.64s17.439,4.79,23.569,11.18C421.34,256.71,401.98,270.58,401.06,288.34z"/>
<path opacity="0.1" enable-background="new    " d="M387.54,741.34c-5.1-2.21-14.38-0.89-30.31-5.74c-15.931-4.85-19-26.77-19-26.77
	v-0.07l0,0c-0.19-0.5-1.671-3.76-11.69-15.18c-11.07-12.61-35-76.3-35-76.3s-21.22-22.79-20.55-31.19
	c0.67-8.399-3.77-30.75-3.33-55.75s47.77-41.58,47.77-41.58c91.13-16.149,69.67,88.91,67.24,96.87s10.18,29.46,10.18,29.46
	c-1.779,9.36,7.301,23.851,7.301,23.851s2.199,12.819,2.649,17.689c0.025,0.225,0.075,0.446,0.15,0.66
	c1.46,4.59,13.359,8.75,18.2,11.28c5.09,2.66,21.46,25.88,21.46,25.88C446.14,711.5,392.62,743.58,387.54,741.34z"/>
<path fill="#F3DFE3" d="M390.19,737.34c-5.091-2.22-14.381-0.89-30.301-5.75c-15.92-4.859-19-26.76-19-26.76v-0.07l0,0
	c-0.18-0.51-1.67-3.76-11.689-15.18c-11.07-12.61-35-76.311-35-76.311s-21.22-22.779-20.56-31.18c0.66-8.399-3.76-30.75-3.32-55.729
	c0.44-24.98,47.74-41.551,47.74-41.551c91.131-16.149,69.671,88.91,67.24,96.87c-2.43,7.96,10.181,29.46,10.181,29.46
	c-1.78,9.36,7.3,23.851,7.3,23.851s2.2,12.819,2.659,17.689c0.018,0.226,0.064,0.447,0.141,0.66c1.46,4.59,13.359,8.75,18.21,11.28
	c5.08,2.649,21.46,25.88,21.46,25.88C448.8,707.52,395.28,739.6,390.19,737.34z"/>
<path opacity="0.1" enable-background="new    " d="M319.86,539.66c0,0,39.81,42,50.199,42
	C380.45,581.66,319.86,539.66,319.86,539.66z"/>
<path fill="#F3DFE3" d="M390.19,737.34c-5.091-2.22-14.381-0.89-30.301-5.75c-15.92-4.859-19-26.76-19-26.76v-0.07l0,0
	c10.551-7,37.271-26.77,47.801-34c7.409-5.069,13.46-12.52,17-17.46c1.46,4.59,13.359,8.75,18.21,11.28
	c5.08,2.65,21.46,25.88,21.46,25.88C448.8,707.52,395.28,739.6,390.19,737.34z"/>
<g opacity="0.1">
	<path d="M245.06,348.19c0.05,0.08,0.12,0.15,0.18,0.23c0.3-0.38,0.61-0.76,0.93-1.12C245.829,347.631,245.458,347.93,245.06,348.19
		z"/>
	<path d="M268.26,394.03c0.42-5.55,3.39-10.44,6.17-15.32c-1.82-0.7-3.64-1.41-5.44-2.15c0.171-1.122,0.258-2.255,0.26-3.39
		c-2.81,5-5.87,9.92-6.3,15.55c-0.51,6.679,2.78,13,5.7,19c11.24,23.2,18.17,50.34,9.72,74.7c-3.67,10.58-10,20-14.63,30.23
		c-8.091,18.116-10.47,38.268-6.82,57.77c2.29,12.13,6.93,24.12,5.79,36.41c-2,21.15-20.23,36.89-38.51,47.7
		c-7.47,4.42-16.2,8.47-24.55,8.18c-0.773,1.244-1.635,2.431-2.58,3.55c10.49,4.63,22.56-0.58,32.43-6.42
		c18.29-10.8,36.56-26.5,38.56-47.689c1.14-12.29-3.5-24.28-5.8-36.41c-3.65-19.501-1.279-39.65,6.8-57.771
		c4.6-10.22,11-19.649,14.63-30.229c8.45-24.36,1.51-51.5-9.72-74.7C271.06,407,267.75,400.71,268.26,394.03z"/>
	<path d="M405.16,239.98c-0.983-1.009-2.04-1.945-3.16-2.8c12.12,15.72-5.38,29.08-6.25,46c-0.78,15.3,0.5,49.52-16.45,57.18
		c-8.38,3.79-17.37-4.51-26.56-4.71c-6.63-0.14-12.69,4.07-16.74,9.31c-4.05,5.24-6.54,11.48-9.47,17.42
		c-2.673,5.391-5.749,10.572-9.2,15.5c-2,2.93-4.34,5.85-7.521,7.5c-5.5,2.87-12.189,1.26-18.12-0.6
		c-5.767-1.813-11.48-3.813-17.14-6c-0.012,1.042-0.099,2.081-0.26,3.11c7.46,3.04,15.03,5.767,22.71,8.18
		c5.92,1.861,12.61,3.47,18.12,0.6c3.17-1.65,5.47-4.58,7.52-7.51c3.454-4.921,6.526-10.1,9.19-15.49
		c2.939-5.94,5.42-12.19,9.479-17.43c4.061-5.24,10.11-9.44,16.73-9.3c9.2,0.2,18.19,8.5,26.57,4.71
		c16.949-7.66,15.659-41.88,16.449-57.18C401.98,270.68,421.34,256.82,405.16,239.98z"/>
</g>
<path opacity="0.1" enable-background="new    " d="M273.39,380.42c-0.85,1.5-1.68,3-2.44,4.54c-0.29,0.59-0.57,1.2-0.82,1.81
	c-5.24-5.28-18-17.83-25.12-21.72c1.731-3.71,3.988-7.152,6.7-10.22C251.71,354.83,268.68,363.8,273.39,380.42z"/>
<path fill="#FF748E" d="M273.86,379.6c-3.93-17.79-22.15-27.42-22.15-27.42c-2.714,3.065-4.971,6.508-6.7,10.22
	c7.51,4.11,21.35,17.89,25.94,22.56L273.86,379.6z"/>
</svg>
